# xmcd CD database file
#
# Track frame offsets:
#	150
#	12540
#	26065
#	39195
#	52510
#	62085
#	75877
#	90390
#	102380
#	114872
#	130472
#	142772
#	155172
#	169387
#	180362
#	193115
#	204485
#	218830
#	232395
#	244752
#
# Disc length: 3425 seconds
#
# Revision: 4
# Processed by: cddbd v1.5.2PL0 Copyright (c) Steve Scherf et al.
# Submitted via: CDex 1.51
#
DISCID=080d5f14
DTITLE=Günter Noris - Die klassische Hitparade Zum Tanzen (T/M)
DYEAR=1993
DGENRE=Dance
TTITLE0=Tritsch Tratsch Polka (Samba T/M 53)
TTITLE1=Für Elise (ChaCha T/M 32)
TTITLE2=Komm In Die Gondel (Rumba (T/M 27)
TTITLE3=Hummelflug (Jive T/M 44)
TTITLE4=Carmen (Paso Doble T/M 60)
TTITLE5=Poeme (Englisch Walz T/M 30)
TTITLE6=Annen Polka (Foxtrott T/M 41)
TTITLE7=Eljen A Magyar (Tango T/M 33)
TTITLE8=Nussknacker und Dornröschen Walzer (Wiener Walzer T/M 56)
TTITLE9=Wiener Blut (Slow Fox T/M 30)
TTITLE10=Aufforderung zum Tanz (Quickstep T/M 52)
TTITLE11=An der schönen blauen Donau (ChaCha T/M 32)
TTITLE12=Etüde in E (Rumba T/M 27)
TTITLE13=Fledermauswalzer (Boogie Woogie T/M 42)
TTITLE14=Polowetzer Tänze (Blues T/M 21)
TTITLE15=Liebestraum (Foxtrott T/M 46)
TTITLE16=Kaiserwalzer (Langsamer Walzer T/M 29)
TTITLE17=Serenade (Tango T/M 33)
TTITLE18=Wiener G´schichten (Wiener Walzer T/M 58)
TTITLE19=Rosen aus dem Süden (Quick step T/M 52)
EXTD=YEAR: 1993
EXTT0=
EXTT1=
EXTT2=
EXTT3=
EXTT4=
EXTT5=
EXTT6=
EXTT7=
EXTT8=
EXTT9=
EXTT10=
EXTT11=
EXTT12=
EXTT13=
EXTT14=
EXTT15=
EXTT16=
EXTT17=
EXTT18=
EXTT19=
PLAYORDER=
